<?xml version="1.0" standalone="no"?>
<!DOCTYPE svg PUBLIC "-//W3C//DTD SVG 20010904//EN"
 "http://www.w3.org/TR/2001/REC-SVG-20010904/DTD/svg10.dtd">
<svg version="1.0" xmlns="http://www.w3.org/2000/svg"
 width="770.000000pt" height="770.000000pt" viewBox="0 0 770.000000 770.000000"
 preserveAspectRatio="xMidYMid meet">
<metadata>
Created by potrace 1.14, written by Peter Selinger 2001-2017
</metadata>
<g transform="translate(0.000000,770.000000) scale(0.100000,-0.100000)"
fill="#000000" stroke="none">
<path d="M0 3850 l0 -3850 3850 0 3850 0 0 3850 0 3850 -3850 0 -3850 0 0
-3850z m4213 995 c980 -597 1783 -1088 1784 -1093 1 -4 -23 -19 -55 -34 -31
-15 -84 -43 -117 -62 -33 -20 -82 -47 -110 -61 -76 -39 -110 -59 -113 -68 -2
-4 -7 -5 -12 -2 -4 3 -13 -2 -20 -10 -7 -8 -18 -15 -25 -15 -7 0 -24 -9 -39
-21 -14 -11 -26 -18 -26 -15 0 4 -18 -5 -40 -19 -22 -14 -44 -25 -50 -25 -5 0
-10 -5 -10 -11 0 -5 -4 -8 -9 -4 -5 3 -12 1 -16 -5 -3 -5 -32 -23 -63 -39 -90
-45 -127 -65 -133 -74 -3 -5 -10 -9 -15 -9 -5 -1 -18 -6 -29 -13 -24 -15 -58
-33 -140 -74 -33 -17 -67 -35 -75 -40 -57 -35 -228 -129 -369 -203 -30 -15
-62 -35 -71 -43 -9 -8 -23 -15 -32 -15 -8 0 -26 -9 -40 -19 -13 -11 -44 -30
-69 -43 -60 -30 -131 -68 -199 -107 -30 -17 -80 -43 -110 -59 -66 -33 -168
-89 -230 -126 -25 -14 -71 -38 -102 -53 -32 -14 -58 -30 -58 -35 0 -4 -6 -8
-12 -8 -7 0 -40 -16 -73 -36 -33 -20 -65 -37 -71 -38 -7 -1 -19 -8 -27 -14 -8
-7 -41 -27 -74 -44 -98 -51 -146 -77 -198 -106 -27 -16 -81 -45 -120 -66 -153
-83 -171 -92 -190 -104 -11 -6 -92 -50 -180 -98 -88 -47 -184 -99 -212 -116
l-53 -29 0 2070 c0 1375 3 2071 10 2071 6 0 812 -488 1793 -1085z"/>
</g>
</svg>
